<?xml version="1.0" encoding="UTF-8" standalone="no"?>
<!DOCTYPE svg PUBLIC "-//W3C//DTD SVG 1.1//EN" "http://www.w3.org/Graphics/SVG/1.1/DTD/svg11.dtd">
<svg width="100%" height="100%" viewBox="0 0 64 64" version="1.1" xmlns="http://www.w3.org/2000/svg" xmlns:xlink="http://www.w3.org/1999/xlink" xml:space="preserve" xmlns:serif="http://www.serif.com/" style="fill-rule:evenodd;clip-rule:evenodd;stroke-linejoin:round;stroke-miterlimit:2;">
    <g transform="matrix(1.99036,0,0,1.82705,-17.2524,-13.7987)">
        <path d="M12.287,41.224C12.471,41.224 12.655,41.173 12.817,41.072L36.817,26.072C37.109,25.889 37.287,25.569 37.287,25.224C37.287,24.879 37.109,24.559 36.817,24.376L12.817,9.376C12.508,9.184 12.12,9.172 11.802,9.35C11.484,9.526 11.287,9.861 11.287,10.225L11.287,40.225C11.287,40.588 11.484,40.923 11.802,41.1C11.954,41.182 12.12,41.224 12.287,41.224ZM13.287,12.028L34.4,25.224L13.287,38.419L13.287,12.028Z" style="fill:white;fill-rule:nonzero;"/>
    </g>
</svg>
