<?xml version="1.0" encoding="UTF-8" standalone="no"?>
<!DOCTYPE svg PUBLIC "-//W3C//DTD SVG 1.1//EN" "http://www.w3.org/Graphics/SVG/1.1/DTD/svg11.dtd">
<svg width="100%" height="100%" viewBox="0 0 64 64" version="1.1" xmlns="http://www.w3.org/2000/svg" xmlns:xlink="http://www.w3.org/1999/xlink" xml:space="preserve" xmlns:serif="http://www.serif.com/" style="fill-rule:evenodd;clip-rule:evenodd;stroke-linejoin:round;stroke-miterlimit:2;">
    <g transform="matrix(1.9727,0,0,1.9727,-16.0092,-18.552)">
        <path d="M33.053,27.25C30.496,27.25 28.417,29.353 28.417,31.938C28.417,34.523 30.496,36.626 33.053,36.626C35.297,36.626 37.248,34.937 37.673,32.792C37.698,32.661 37.688,32.597 37.688,32.45L37.688,10.625C37.688,10.323 37.551,10.037 37.317,9.848C37.083,9.658 36.776,9.582 36.479,9.648L17.75,13.648C17.289,13.746 16.959,14.154 16.959,14.626L16.959,33.09C16.21,32.564 15.303,32.251 14.323,32.251C11.767,32.251 9.688,34.354 9.688,36.939C9.688,39.524 11.767,41.627 14.323,41.627C16.88,41.627 18.959,39.524 18.959,36.939C18.959,36.827 18.934,36.722 18.926,36.613C18.935,36.558 18.959,36.509 18.959,36.451L18.959,21.434L35.688,17.861L35.688,28.09C34.938,27.563 34.032,27.25 33.053,27.25ZM33.053,34.625C31.6,34.625 30.417,33.419 30.417,31.937C30.417,30.455 31.6,29.249 33.053,29.249C34.506,29.249 35.688,30.455 35.688,31.937C35.688,33.419 34.506,34.625 33.053,34.625ZM14.322,39.625C12.869,39.625 11.687,38.419 11.687,36.937C11.687,35.455 12.869,34.249 14.322,34.249C15.775,34.249 16.958,35.455 16.958,36.937C16.958,38.419 15.775,39.625 14.322,39.625ZM18.958,19.389L18.958,15.433L35.687,11.861L35.687,15.816L18.958,19.389Z" style="fill:white;fill-rule:nonzero;"/>
    </g>
</svg>
