<?xml version="1.0" encoding="UTF-8" standalone="no"?>
<!DOCTYPE svg PUBLIC "-//W3C//DTD SVG 1.1//EN" "http://www.w3.org/Graphics/SVG/1.1/DTD/svg11.dtd">
<svg width="100%" height="100%" viewBox="0 0 64 64" version="1.1" xmlns="http://www.w3.org/2000/svg" xmlns:xlink="http://www.w3.org/1999/xlink" xml:space="preserve" xmlns:serif="http://www.serif.com/" style="fill-rule:evenodd;clip-rule:evenodd;stroke-linejoin:round;stroke-miterlimit:2;">
    <g transform="matrix(2.05663,0,0,2.05663,-2.96016,1.05397)">
        <g id="Page-1">
            <g>
                <g transform="matrix(0.582242,0,0,0.629316,-2.79602,-3.89161)">
                    <path d="M30.848,10.297C32.589,7.481 35.414,7.488 37.15,10.297L58.72,45.195C61.043,48.953 59.351,52 54.943,52L13.056,52C8.646,52 6.948,48.965 9.278,45.195L30.848,10.297ZM32.706,11.046C33.401,9.923 34.53,9.927 35.222,11.046L57.233,46.611C58.391,48.483 57.524,50 55.349,50L12.581,50C10.382,50 9.533,48.493 10.697,46.611L32.706,11.046Z" style="fill:white;"/>
                </g>
                <g transform="matrix(1.25863,0,0,1.25863,-4.39641,-3.89161)">
                    <path d="M17,23C17.552,23 18,22.552 18,22C18,21.448 17.552,21 17,21C16.448,21 16,21.448 16,22C16,22.552 16.448,23 17,23Z" style="fill:white;"/>
                </g>
                <g transform="matrix(1.25863,0,0,1.25863,-4.39641,-3.89161)">
                    <path d="M17,11C16.448,11 16,11.453 16,11.997L16,18.003C16,18.554 16.444,19 17,19C17.552,19 18,18.547 18,18.003L18,11.997C18,11.446 17.556,11 17,11Z" style="fill:white;"/>
                </g>
            </g>
        </g>
    </g>
</svg>
